<svg width="120" height="34" viewBox="0 0 120 34" fill="none" xmlns="http://www.w3.org/2000/svg"><path d="M25.99 6.44a.325.325 0 00-.296-.273c-.122-.01-2.515-.047-2.515-.047s-2.002-1.933-2.2-2.13c-.198-.197-.584-.137-.734-.093l-1.006.31a6.987 6.987 0 00-.481-1.176C18.045 1.678 17 .963 15.74.96h-.005c-.087 0-.174.008-.262.016a3.78 3.78 0 00-.114-.131c-.55-.585-1.253-.87-2.098-.844-1.628.046-3.25 1.216-4.566 3.294-.925 1.462-1.63 3.3-1.83 4.722l-3.206.988c-.944.295-.974.324-1.097 1.209C2.47 10.884 0 29.882 0 29.882l20.7 3.56 8.973-2.218L25.989 6.44zm-7.787-1.914l-1.607.495c-.012-.82-.11-1.961-.494-2.948 1.236.233 1.844 1.624 2.1 2.453zm-2.69.829l-3.456 1.064c.334-1.272.967-2.538 1.745-3.369.29-.309.694-.653 1.174-.85.45.936.548 2.26.537 3.155zM13.294 1.08c.383-.009.704.075.98.255-.44.227-.866.554-1.265.98-1.035 1.104-1.828 2.817-2.144 4.47l-2.839.875c.56-2.603 2.754-6.508 5.268-6.58z" fill="#95BF47"/><path d="M25.696 6.168c-.123-.01-2.516-.047-2.516-.047s-2.002-1.933-2.2-2.13a.49.49 0 00-.278-.127l.001 29.578 8.971-2.218S26.014 6.61 25.991 6.441a.326.326 0 00-.295-.273z" fill="#5E8E3E"/><path d="M15.728 10.756l-1.042 3.877s-1.162-.526-2.54-.44c-2.02.127-2.042 1.395-2.021 1.713.11 1.734 4.697 2.113 4.954 6.175.203 3.195-1.704 5.381-4.451 5.553-3.298.207-5.113-1.727-5.113-1.727l.698-2.956s1.828 1.371 3.29 1.28c.956-.06 1.297-.834 1.263-1.38-.144-2.262-3.88-2.129-4.115-5.845-.199-3.128 1.866-6.297 6.423-6.583 1.756-.113 2.654.333 2.654.333z" fill="#fff"/><path d="M41.488 18.875c-1.032-.557-1.562-1.026-1.562-1.671 0-.821.736-1.349 1.887-1.349 1.338 0 2.534.557 2.534.557l.943-2.873s-.867-.674-3.42-.674c-3.55 0-6.011 2.022-6.011 4.866 0 1.612 1.149 2.843 2.682 3.722 1.238.703 1.68 1.202 1.68 1.935 0 .762-.619 1.377-1.768 1.377-1.713 0-3.33-.88-3.33-.88l-1.002 2.874s1.494.996 4.008.996c3.655 0 6.278-1.788 6.278-5.012 0-1.729-1.327-2.96-2.92-3.868zm14.559-6.039c-1.797 0-3.212.85-4.302 2.14l-.06-.03 1.563-8.119H49.18l-3.949 20.665H49.3l1.355-7.064c.53-2.668 1.915-4.308 3.213-4.308.913 0 1.267.615 1.267 1.495 0 .557-.059 1.231-.176 1.788l-1.533 8.09h4.068l1.591-8.354c.177-.88.295-1.934.295-2.638-.002-2.287-1.21-3.665-3.331-3.665zm12.525 0c-4.892 0-8.134 4.397-8.134 9.292 0 3.136 1.945 5.657 5.6 5.657 4.804 0 8.046-4.28 8.046-9.292 0-2.902-1.71-5.657-5.512-5.657zM66.568 24.68c-1.385 0-1.974-1.173-1.974-2.638 0-2.316 1.208-6.097 3.419-6.097 1.444 0 1.915 1.231 1.915 2.433 0 2.491-1.208 6.302-3.36 6.302zm17.919-11.844c-2.745 0-4.303 2.404-4.303 2.404h-.058l.236-2.17h-3.596a85.86 85.86 0 01-.825 5.365l-2.83 14.802h4.068l1.12-5.98h.088s.835.528 2.387.528c4.774 0 7.898-4.866 7.898-9.79 0-2.726-1.208-5.159-4.185-5.159zm-3.89 11.9c-1.056 0-1.68-.585-1.68-.585l.677-3.782c.472-2.52 1.798-4.191 3.213-4.191 1.238 0 1.621 1.142 1.621 2.227 0 2.61-1.562 6.332-3.831 6.332zM94.478 7.032a2.315 2.315 0 00-2.328 2.345c0 1.202.766 2.023 1.916 2.023h.059c1.267 0 2.357-.85 2.387-2.345 0-1.172-.796-2.023-2.034-2.023zm-5.687 20.46h4.066l2.772-14.333h-4.097L88.79 27.492zm17.182-14.362h-2.83l.147-.675c.236-1.377 1.062-2.609 2.417-2.609.724 0 1.296.206 1.296.206l.796-3.166s-.707-.352-2.21-.352c-1.445 0-2.888.41-3.979 1.349-1.385 1.172-2.034 2.872-2.357 4.572l-.118.675H97.25l-.59 3.048h1.887l-2.152 11.315h4.068l2.151-11.314h2.8l.56-3.05zm9.784.03s-2.542 6.37-3.684 9.848h-.059c-.078-1.12-1.002-9.849-1.002-9.849h-4.274l2.447 13.16c.06.293.03.47-.088.675-.472.909-1.268 1.788-2.211 2.433-.766.557-1.621.909-2.298 1.143l1.119 3.43c.826-.176 2.535-.85 3.979-2.198 1.857-1.73 3.566-4.397 5.334-8.032l4.981-10.612h-4.244v.001z" fill="#000"/></svg>